# xmcd
#
# Track frame offsets:
# 150
# 17903
# 32845
# 51418
# 69348
# 87690
# 105518
# 123795
# 138303
# 162653
# 178620
#
# Disc length: 2835 seconds
#
#
# Revision: 5
# Processed by: cddbd v1.5.1PL0 Copyright (c) Steve Scherf et al.
# Submitted via: FreeRIP 2.941 
#
DISCID=970b110b
DTITLE=Various Artist - L.A. Blues Authority Vol. 3
DYEAR=1993
DGENRE=Blues
TTITLE0=Pat Travers - Cold Shot
TTITLE1=Tony Spinner - Empty Arms
TTITLE2=Craig Erickson - Telephone Song
TTITLE3=Steve Hunter - Lenny
TTITLE4=Frank Marino - The Things (That) I Used To Do
TTITLE5=Rick Derringer - Pride And Joy
TTITLE6=Jon Butcher - Crossfire
TTITLE7=Kevin Russel - Tell Me
TTITLE8=Ricky Medlocke - Texas Flood
TTITLE9=Leslie West - Look At Little Sister
TTITLE10=Various Artist - Blues For Stevie
EXTD=
EXTT0=
EXTT1=
EXTT2=
EXTT3=
EXTT4=
EXTT5=
EXTT6=
EXTT7=
EXTT8=
EXTT9=
EXTT10=
PLAYORDER=
